<svg width="20" height="20" viewBox="0 0 20 20" fill="none" xmlns="http://www.w3.org/2000/svg">
<path d="M17.6671 17.6668V11.8068C17.6671 8.92681 17.0471 6.72681 13.6871 6.72681C12.0671 6.72681 10.9871 7.60681 10.5471 8.44681H10.5071V6.98681H7.32715V17.6668H10.6471V12.3668C10.6471 10.9668 10.9071 9.62681 12.6271 9.62681C14.3271 9.62681 14.3471 11.2068 14.3471 12.4468V17.6468H17.6671V17.6668Z" fill="#FF7F50"/>
<path d="M1.92676 6.98682H5.24676V17.6668H1.92676V6.98682Z" fill="#FF7F50"/>
<path d="M3.58699 1.66675C2.52699 1.66675 1.66699 2.52675 1.66699 3.58675C1.66699 4.64675 2.52699 5.52675 3.58699 5.52675C4.64699 5.52675 5.50699 4.64675 5.50699 3.58675C5.50699 2.52675 4.64699 1.66675 3.58699 1.66675Z" fill="#FF7F50"/>
</svg>
